<?xml version="1.0" encoding="UTF-8"?>
<svg xmlns="http://www.w3.org/2000/svg" xmlns:xlink="http://www.w3.org/1999/xlink" width="375.911pt" height="311.96pt" viewBox="0 0 375.911 311.96">
<defs>
<g>
<g id="glyph-0-0">
<path d="M 2.4375 -4.515625 C 2.890625 -5.296875 3.625 -5.5625 4.203125 -5.5625 C 5.25 -5.5625 6.046875 -4.359375 6.046875 -2.90625 C 6.046875 -1.375 5.140625 -0.1875 4.046875 -0.1875 C 3.4375 -0.1875 2.9375 -0.53125 2.609375 -1.015625 C 2.4375 -1.28125 2.4375 -1.3125 2.4375 -1.5625 Z M 2.4375 -0.640625 C 2.78125 -0.296875 3.234375 0.140625 4.125 0.140625 C 5.734375 0.140625 7.203125 -1.140625 7.203125 -2.90625 C 7.203125 -4.59375 5.890625 -5.953125 4.3125 -5.953125 C 3.578125 -5.953125 2.90625 -5.65625 2.390625 -5.09375 L 2.390625 -5.953125 L 0.40625 -5.796875 L 0.40625 -5.375 C 1.359375 -5.375 1.4375 -5.296875 1.4375 -4.71875 L 1.4375 1.578125 C 1.4375 2.1875 1.296875 2.1875 0.40625 2.1875 L 0.40625 2.609375 C 1.03125 2.578125 1.296875 2.5625 1.9375 2.5625 C 2.578125 2.5625 2.765625 2.578125 3.46875 2.609375 L 3.46875 2.1875 C 2.578125 2.1875 2.4375 2.1875 2.4375 1.578125 Z M 2.4375 -0.640625 "/>
</g>
<g id="glyph-0-1">
<path d="M 6.515625 -2.859375 C 6.515625 -4.625 5.109375 -6.03125 3.453125 -6.03125 C 1.75 -6.03125 0.390625 -4.59375 0.390625 -2.859375 C 0.390625 -1.1875 1.796875 0.140625 3.4375 0.140625 C 5.15625 0.140625 6.515625 -1.203125 6.515625 -2.859375 Z M 3.453125 -0.234375 C 2.78125 -0.234375 2.21875 -0.5625 1.90625 -1.09375 C 1.5625 -1.65625 1.546875 -2.375 1.546875 -2.984375 C 1.546875 -3.484375 1.546875 -4.25 1.890625 -4.796875 C 2.28125 -5.484375 2.953125 -5.6875 3.4375 -5.6875 C 4.203125 -5.6875 4.765625 -5.265625 5.03125 -4.796875 C 5.34375 -4.234375 5.359375 -3.546875 5.359375 -2.984375 C 5.359375 -2.484375 5.359375 -1.703125 5.015625 -1.109375 C 4.640625 -0.5 4.015625 -0.234375 3.453125 -0.234375 Z M 3.453125 -0.234375 "/>
</g>
<g id="glyph-0-2">
<path d="M 4.625 -5.671875 C 4.625 -5.90625 4.625 -6.03125 4.46875 -6.03125 C 4.40625 -6.03125 4.375 -6.03125 4.203125 -5.859375 C 4.171875 -5.84375 4.046875 -5.71875 3.96875 -5.65625 C 3.546875 -5.953125 3.140625 -6.03125 2.671875 -6.03125 C 0.90625 -6.03125 0.453125 -5.046875 0.453125 -4.359375 C 0.453125 -3.921875 0.640625 -3.578125 0.953125 -3.28125 C 1.40625 -2.859375 1.921875 -2.765625 2.609375 -2.65625 C 3.296875 -2.515625 3.53125 -2.46875 3.828125 -2.25 C 3.953125 -2.140625 4.296875 -1.890625 4.296875 -1.375 C 4.296875 -0.1875 2.9375 -0.1875 2.75 -0.1875 C 1.375 -0.1875 1.015625 -1.328125 0.859375 -2.0625 C 0.828125 -2.1875 0.8125 -2.28125 0.640625 -2.28125 C 0.453125 -2.28125 0.453125 -2.171875 0.453125 -1.921875 L 0.453125 -0.203125 C 0.453125 0.03125 0.453125 0.140625 0.625 0.140625 C 0.703125 0.140625 0.71875 0.140625 0.953125 -0.125 C 1.015625 -0.203125 1.15625 -0.375 1.21875 -0.4375 C 1.796875 0.109375 2.40625 0.140625 2.75 0.140625 C 4.40625 0.140625 4.984375 -0.828125 4.984375 -1.71875 C 4.984375 -2.328125 4.703125 -2.6875 4.40625 -3 C 3.953125 -3.4375 3.46875 -3.53125 2.46875 -3.71875 C 2.125 -3.796875 1.140625 -3.96875 1.140625 -4.734375 C 1.140625 -5.171875 1.453125 -5.734375 2.671875 -5.734375 C 4.125 -5.734375 4.21875 -4.609375 4.25 -4.28125 C 4.265625 -4.109375 4.265625 -4.03125 4.4375 -4.03125 C 4.625 -4.03125 4.625 -4.125 4.625 -4.390625 Z M 4.625 -5.671875 "/>
</g>
<g id="glyph-0-3">
<path d="M 2.46875 -5.953125 L 0.53125 -5.796875 L 0.53125 -5.375 C 1.40625 -5.375 1.515625 -5.296875 1.515625 -4.640625 L 1.515625 -1.03125 C 1.515625 -0.421875 1.375 -0.421875 0.484375 -0.421875 L 0.484375 0 C 1.09375 -0.03125 1.375 -0.046875 1.96875 -0.046875 C 2.171875 -0.046875 2.75 -0.046875 3.40625 0 L 3.40625 -0.421875 C 2.53125 -0.421875 2.46875 -0.484375 2.46875 -1.015625 Z M 2.515625 -8.28125 C 2.515625 -8.6875 2.1875 -9.015625 1.796875 -9.015625 C 1.375 -9.015625 1.0625 -8.671875 1.0625 -8.28125 C 1.0625 -7.890625 1.375 -7.5625 1.796875 -7.5625 C 2.1875 -7.5625 2.515625 -7.890625 2.515625 -8.28125 Z M 2.515625 -8.28125 "/>
</g>
<g id="glyph-0-4">
<path d="M 4.375 -5.375 L 4.375 -5.796875 L 2.421875 -5.796875 L 2.421875 -8.28125 L 2.046875 -8.28125 C 2.03125 -7.140625 1.5625 -5.765625 0.25 -5.71875 L 0.25 -5.375 L 1.421875 -5.375 L 1.421875 -1.671875 C 1.421875 -0.15625 2.515625 0.140625 3.234375 0.140625 C 4.125 0.140625 4.59375 -0.71875 4.59375 -1.671875 L 4.59375 -2.4375 L 4.21875 -2.4375 L 4.21875 -1.703125 C 4.21875 -0.71875 3.8125 -0.234375 3.328125 -0.234375 C 2.421875 -0.234375 2.421875 -1.40625 2.421875 -1.65625 L 2.421875 -5.375 Z M 4.375 -5.375 "/>
</g>
<g id="glyph-0-5">
<path d="M 2.5 -3.484375 C 2.5 -4.90625 3.515625 -5.609375 4.359375 -5.609375 C 5.15625 -5.609375 5.328125 -4.953125 5.328125 -4.140625 L 5.328125 -1.03125 C 5.328125 -0.421875 5.171875 -0.421875 4.296875 -0.421875 L 4.296875 0 C 4.921875 -0.03125 5.171875 -0.046875 5.828125 -0.046875 C 6.46875 -0.046875 6.640625 -0.03125 7.359375 0 L 7.359375 -0.421875 C 6.671875 -0.421875 6.34375 -0.421875 6.328125 -0.828125 L 6.328125 -3.421875 C 6.328125 -4.53125 6.328125 -4.921875 5.953125 -5.390625 C 5.640625 -5.765625 5.125 -5.953125 4.453125 -5.953125 C 3.203125 -5.953125 2.625 -5.015625 2.4375 -4.640625 L 2.421875 -4.640625 L 2.421875 -5.953125 L 0.46875 -5.796875 L 0.46875 -5.375 C 1.390625 -5.375 1.5 -5.28125 1.5 -4.625 L 1.5 -1.03125 C 1.5 -0.421875 1.359375 -0.421875 0.46875 -0.421875 L 0.46875 0 C 1.109375 -0.03125 1.359375 -0.046875 2 -0.046875 C 2.65625 -0.046875 2.828125 -0.03125 3.53125 0 L 3.53125 -0.421875 C 2.65625 -0.421875 2.5 -0.421875 2.5 -1.03125 Z M 2.5 -3.484375 "/>
</g>
<g id="glyph-0-6">
<path d="M 2.5 -3.484375 C 2.5 -4.9375 3.546875 -5.609375 4.359375 -5.609375 C 5.09375 -5.609375 5.34375 -5.078125 5.34375 -4.140625 L 5.34375 -1.03125 C 5.34375 -0.421875 5.1875 -0.421875 4.3125 -0.421875 L 4.3125 0 C 4.9375 -0.03125 5.1875 -0.046875 5.84375 -0.046875 C 6.484375 -0.046875 6.65625 -0.03125 7.375 0 L 7.375 -0.421875 C 6.484375 -0.421875 6.34375 -0.421875 6.34375 -1.03125 L 6.34375 -3.484375 C 6.34375 -4.9375 7.390625 -5.609375 8.1875 -5.609375 C 8.9375 -5.609375 9.171875 -5.078125 9.171875 -4.140625 L 9.171875 -1.03125 C 9.171875 -0.421875 9.03125 -0.421875 8.140625 -0.421875 L 8.140625 0 C 8.765625 -0.03125 9.03125 -0.046875 9.671875 -0.046875 C 10.3125 -0.046875 10.5 -0.03125 11.203125 0 L 11.203125 -0.421875 C 10.515625 -0.421875 10.1875 -0.421875 10.171875 -0.828125 L 10.171875 -3.421875 C 10.171875 -4.59375 10.171875 -4.96875 9.71875 -5.46875 C 9.4375 -5.78125 8.90625 -5.953125 8.28125 -5.953125 C 7.3125 -5.953125 6.65625 -5.375 6.28125 -4.671875 C 6.125 -5.46875 5.578125 -5.953125 4.453125 -5.953125 C 3.375 -5.953125 2.71875 -5.25 2.4375 -4.625 L 2.421875 -4.625 L 2.421875 -5.953125 L 0.46875 -5.796875 L 0.46875 -5.375 C 1.390625 -5.375 1.5 -5.28125 1.5 -4.625 L 1.5 -1.03125 C 1.5 -0.421875 1.359375 -0.421875 0.46875 -0.421875 L 0.46875 0 C 1.109375 -0.03125 1.359375 -0.046875 2 -0.046875 C 2.65625 -0.046875 2.828125 -0.03125 3.53125 0 L 3.53125 -0.421875 C 2.65625 -0.421875 2.5 -0.421875 2.5 -1.03125 Z M 2.5 -3.484375 "/>
</g>
<g id="glyph-0-7">
<path d="M 5.375 -3.078125 C 5.671875 -3.078125 5.75 -3.078125 5.75 -3.359375 C 5.75 -4.75 4.984375 -6.03125 3.265625 -6.03125 C 1.65625 -6.03125 0.390625 -4.625 0.390625 -2.953125 C 0.390625 -1.203125 1.796875 0.140625 3.4375 0.140625 C 5.078125 0.140625 5.75 -1.296875 5.75 -1.59375 C 5.75 -1.6875 5.671875 -1.78125 5.5625 -1.78125 C 5.421875 -1.78125 5.375 -1.6875 5.375 -1.625 C 4.90625 -0.25 3.71875 -0.234375 3.515625 -0.234375 C 2.859375 -0.234375 2.3125 -0.59375 2 -1.046875 C 1.5625 -1.703125 1.546875 -2.515625 1.546875 -3.078125 Z M 1.5625 -3.40625 C 1.6875 -5.46875 2.890625 -5.6875 3.265625 -5.6875 C 4.015625 -5.6875 4.8125 -5.125 4.828125 -3.40625 Z M 1.5625 -3.40625 "/>
</g>
<g id="glyph-1-0">
<path d="M 6.625 -5.4375 C 6.125 -5.34375 5.96875 -4.90625 5.96875 -4.703125 C 5.96875 -4.453125 6.15625 -4.21875 6.5 -4.21875 C 6.875 -4.21875 7.234375 -4.546875 7.234375 -5.015625 C 7.234375 -5.640625 6.5625 -5.953125 5.9375 -5.953125 C 5.125 -5.953125 4.65625 -5.234375 4.5 -4.953125 C 4.234375 -5.609375 3.640625 -5.953125 3 -5.953125 C 1.5625 -5.953125 0.78125 -4.21875 0.78125 -3.875 C 0.78125 -3.75 0.875 -3.71875 0.96875 -3.71875 C 1.09375 -3.71875 1.125 -3.78125 1.15625 -3.859375 C 1.578125 -5.1875 2.46875 -5.609375 2.96875 -5.609375 C 3.359375 -5.609375 3.71875 -5.359375 3.71875 -4.71875 C 3.71875 -4.234375 3.140625 -2.078125 2.953125 -1.4375 C 2.859375 -1.015625 2.453125 -0.1875 1.703125 -0.1875 C 1.4375 -0.1875 1.15625 -0.28125 1.015625 -0.359375 C 1.390625 -0.4375 1.65625 -0.734375 1.65625 -1.09375 C 1.65625 -1.421875 1.40625 -1.578125 1.140625 -1.578125 C 0.75 -1.578125 0.40625 -1.234375 0.40625 -0.78125 C 0.40625 -0.125 1.125 0.140625 1.6875 0.140625 C 2.46875 0.140625 2.9375 -0.5 3.140625 -0.859375 C 3.46875 0.03125 4.265625 0.140625 4.625 0.140625 C 6.078125 0.140625 6.84375 -1.59375 6.84375 -1.921875 C 6.84375 -1.984375 6.8125 -2.078125 6.671875 -2.078125 C 6.53125 -2.078125 6.515625 -2.03125 6.4375 -1.828125 C 6.140625 -0.859375 5.375 -0.1875 4.671875 -0.1875 C 4.28125 -0.1875 3.921875 -0.4375 3.921875 -1.078125 C 3.921875 -1.375 4.109375 -2.109375 4.21875 -2.625 C 4.28125 -2.859375 4.640625 -4.3125 4.671875 -4.40625 C 4.828125 -4.890625 5.234375 -5.609375 5.921875 -5.609375 C 6.15625 -5.609375 6.421875 -5.5625 6.625 -5.4375 Z M 6.625 -5.4375 "/>
</g>
<g id="glyph-1-1">
<path d="M 2.859375 -5.375 L 4.140625 -5.375 C 4.390625 -5.375 4.546875 -5.375 4.546875 -5.625 C 4.546875 -5.796875 4.40625 -5.796875 4.171875 -5.796875 L 2.96875 -5.796875 L 3.53125 -8.03125 C 3.53125 -8.25 3.34375 -8.421875 3.109375 -8.421875 C 2.671875 -8.421875 2.5625 -8.03125 2.546875 -7.890625 L 2 -5.796875 L 0.734375 -5.796875 C 0.484375 -5.796875 0.328125 -5.796875 0.328125 -5.5625 C 0.328125 -5.375 0.46875 -5.375 0.71875 -5.375 L 1.90625 -5.375 L 1 -1.71875 C 0.890625 -1.3125 0.890625 -1.296875 0.890625 -1.109375 C 0.890625 -0.3125 1.5 0.140625 2.1875 0.140625 C 3.59375 0.140625 4.390625 -1.796875 4.390625 -1.921875 C 4.390625 -1.984375 4.34375 -2.078125 4.203125 -2.078125 C 4.078125 -2.078125 4.0625 -2.046875 3.96875 -1.8125 C 3.546875 -0.84375 2.875 -0.1875 2.21875 -0.1875 C 1.953125 -0.1875 1.796875 -0.359375 1.796875 -0.8125 C 1.796875 -1.109375 1.828125 -1.265625 1.890625 -1.46875 Z M 2.859375 -5.375 "/>
</g>
<g id="glyph-1-2">
<path d="M 6.265625 -6.65625 C 6.265625 -8.046875 5.8125 -9.484375 4.578125 -9.484375 C 2.609375 -9.484375 0.546875 -5.65625 0.546875 -2.65625 C 0.546875 -1.6875 0.84375 0.140625 2.25 0.140625 C 4.203125 0.140625 6.265625 -3.640625 6.265625 -6.65625 Z M 2.015625 -4.890625 C 2.28125 -5.953125 2.5625 -6.921875 3.125 -7.859375 C 3.4375 -8.390625 3.9375 -9.140625 4.5625 -9.140625 C 5.28125 -9.140625 5.34375 -7.984375 5.34375 -7.484375 C 5.34375 -6.671875 5.125 -5.734375 4.921875 -4.890625 Z M 4.796875 -4.453125 C 4.59375 -3.609375 4.328125 -2.59375 3.796875 -1.640625 C 3.4375 -1.015625 2.90625 -0.1875 2.265625 -0.1875 C 1.6875 -0.1875 1.5 -0.890625 1.5 -1.875 C 1.5 -2.734375 1.703125 -3.609375 1.90625 -4.453125 Z M 4.796875 -4.453125 "/>
</g>
<g id="glyph-2-0">
<path d="M 2.625 -3.109375 C 2.578125 -3.78125 1.953125 -3.953125 1.609375 -3.953125 C 1.28125 -3.953125 1.046875 -3.75 0.875 -3.46875 C 0.65625 -3.09375 0.546875 -2.625 0.546875 -2.578125 C 0.546875 -2.484375 0.625 -2.453125 0.703125 -2.453125 C 0.859375 -2.453125 0.859375 -2.515625 0.90625 -2.65625 C 1.078125 -3.375 1.296875 -3.65625 1.59375 -3.65625 C 1.90625 -3.65625 1.90625 -3.296875 1.90625 -3.203125 C 1.90625 -3.0625 1.828125 -2.703125 1.765625 -2.453125 C 1.6875 -2.203125 1.609375 -1.84375 1.5625 -1.640625 C 1.5 -1.421875 1.4375 -1.1875 1.375 -0.953125 C 1.3125 -0.703125 1.203125 -0.265625 1.203125 -0.203125 C 1.203125 -0.015625 1.359375 0.09375 1.53125 0.09375 C 1.6875 0.09375 1.84375 -0.015625 1.90625 -0.15625 C 1.921875 -0.203125 2.015625 -0.515625 2.046875 -0.703125 L 2.25 -1.5 C 2.3125 -1.734375 2.34375 -1.90625 2.40625 -2.109375 C 2.484375 -2.40625 2.796875 -2.890625 3.125 -3.21875 C 3.3125 -3.390625 3.6875 -3.65625 4.171875 -3.65625 C 4.75 -3.65625 4.75 -3.203125 4.75 -3.03125 C 4.75 -2.5 4.375 -1.546875 4.203125 -1.140625 C 4.15625 -0.984375 4.09375 -0.84375 4.09375 -0.6875 C 4.09375 -0.234375 4.5 0.09375 5 0.09375 C 5.90625 0.09375 6.34375 -1.09375 6.34375 -1.296875 C 6.34375 -1.3125 6.34375 -1.421875 6.171875 -1.421875 C 6.046875 -1.421875 6.046875 -1.375 5.984375 -1.203125 C 5.84375 -0.71875 5.484375 -0.203125 5.015625 -0.203125 C 4.859375 -0.203125 4.78125 -0.34375 4.78125 -0.53125 C 4.78125 -0.703125 4.84375 -0.859375 4.921875 -1.046875 C 5.0625 -1.40625 5.46875 -2.40625 5.46875 -2.921875 C 5.46875 -3.65625 4.90625 -3.953125 4.21875 -3.953125 C 3.78125 -3.953125 3.203125 -3.8125 2.625 -3.109375 Z M 2.625 -3.109375 "/>
</g>
<g id="glyph-2-1">
<path d="M 3.125 -5.59375 C 3.125 -5.8125 2.953125 -5.953125 2.75 -5.953125 C 2.515625 -5.953125 2.25 -5.71875 2.25 -5.46875 C 2.25 -5.234375 2.40625 -5.109375 2.609375 -5.109375 C 2.890625 -5.109375 3.125 -5.375 3.125 -5.59375 Z M 2.578125 -2.46875 C 2.625 -2.5625 2.703125 -2.765625 2.734375 -2.859375 C 2.765625 -2.9375 2.796875 -3.015625 2.796875 -3.171875 C 2.796875 -3.671875 2.34375 -3.953125 1.90625 -3.953125 C 0.984375 -3.953125 0.546875 -2.765625 0.546875 -2.578125 C 0.546875 -2.53125 0.578125 -2.453125 0.703125 -2.453125 C 0.828125 -2.453125 0.859375 -2.5 0.890625 -2.578125 C 1.140625 -3.453125 1.609375 -3.65625 1.859375 -3.65625 C 2.046875 -3.65625 2.109375 -3.546875 2.109375 -3.34375 C 2.109375 -3.15625 2.046875 -3.015625 2.03125 -2.953125 L 1.5625 -1.8125 C 1.46875 -1.546875 1.46875 -1.53125 1.34375 -1.234375 C 1.234375 -0.953125 1.1875 -0.84375 1.1875 -0.6875 C 1.1875 -0.234375 1.59375 0.09375 2.09375 0.09375 C 3 0.09375 3.4375 -1.09375 3.4375 -1.296875 C 3.4375 -1.3125 3.4375 -1.421875 3.28125 -1.421875 C 3.140625 -1.421875 3.140625 -1.375 3.078125 -1.203125 C 2.9375 -0.75 2.578125 -0.203125 2.109375 -0.203125 C 1.953125 -0.203125 1.875 -0.3125 1.875 -0.53125 C 1.875 -0.703125 1.921875 -0.84375 2.046875 -1.125 Z M 2.578125 -2.46875 "/>
</g>
<g id="glyph-3-0">
<path d="M 7.140625 -2.015625 C 7.28125 -2.015625 7.5 -2.015625 7.5 -2.25 C 7.5 -2.46875 7.28125 -2.46875 7.140625 -2.46875 L 1.484375 -2.46875 C 1.34375 -2.46875 1.125 -2.46875 1.125 -2.25 C 1.125 -2.015625 1.34375 -2.015625 1.484375 -2.015625 Z M 7.140625 -2.015625 "/>
</g>
<g id="glyph-4-0">
<path d="M 3.21875 -5.6875 C 3.21875 -5.96875 3.1875 -5.96875 2.921875 -5.96875 C 2.328125 -5.390625 1.40625 -5.390625 1.078125 -5.390625 L 1.078125 -5.046875 C 1.3125 -5.046875 1.90625 -5.046875 2.453125 -5.296875 L 2.453125 -0.765625 C 2.453125 -0.46875 2.453125 -0.34375 1.53125 -0.34375 L 1.140625 -0.34375 L 1.140625 0 C 1.625 -0.03125 2.328125 -0.03125 2.828125 -0.03125 C 3.34375 -0.03125 4.03125 -0.03125 4.53125 0 L 4.53125 -0.34375 L 4.140625 -0.34375 C 3.21875 -0.34375 3.21875 -0.46875 3.21875 -0.765625 Z M 3.21875 -5.6875 "/>
</g>
<g id="glyph-4-1">
<path d="M 4.421875 -2.015625 L 7.3125 -2.015625 C 7.4375 -2.015625 7.671875 -2.015625 7.671875 -2.25 C 7.671875 -2.46875 7.4375 -2.46875 7.3125 -2.46875 L 4.421875 -2.46875 L 4.421875 -5.375 C 4.421875 -5.5 4.421875 -5.734375 4.1875 -5.734375 C 3.953125 -5.734375 3.953125 -5.5 3.953125 -5.375 L 3.953125 -2.46875 L 1.0625 -2.46875 C 0.9375 -2.46875 0.703125 -2.46875 0.703125 -2.25 C 0.703125 -2.015625 0.9375 -2.015625 1.0625 -2.015625 L 3.953125 -2.015625 L 3.953125 0.890625 C 3.953125 1.015625 3.953125 1.25 4.1875 1.25 C 4.421875 1.25 4.421875 1.015625 4.421875 0.890625 Z M 4.421875 -2.015625 "/>
</g>
</g>
</defs>
<path fill="none" stroke-width="0.69739" stroke-linecap="butt" stroke-linejoin="miter" stroke="rgb(0%, 0%, 0%)" stroke-opacity="1" stroke-miterlimit="10" d="M -29.234023 -29.230913 L 230.737669 -29.230913 " transform="matrix(0.999763, 0, 0, -0.999763, 60.410697, 263.924443)"/>
<path fill-rule="nonzero" fill="rgb(0%, 0%, 0%)" fill-opacity="1" stroke-width="0.69739" stroke-linecap="butt" stroke-linejoin="miter" stroke="rgb(0%, 0%, 0%)" stroke-opacity="1" stroke-miterlimit="10" d="M 4.34136 0.00152675 C 3.806077 0.130464 1.465679 0.876734 0.000488823 1.689426 L 0.000488823 -1.69028 C 1.465679 -0.877588 3.806077 -0.131317 4.34136 0.00152675 Z M 4.34136 0.00152675 " transform="matrix(0.999763, 0, 0, -0.999763, 291.093261, 293.149964)"/>
<g fill="rgb(0%, 0%, 0%)" fill-opacity="1">
<use xlink:href="#glyph-0-0" x="302.372411" y="296.340768"/>
</g>
<g fill="rgb(0%, 0%, 0%)" fill-opacity="1">
<use xlink:href="#glyph-0-1" x="310.440261" y="296.340768"/>
<use xlink:href="#glyph-0-2" x="317.350374" y="296.340768"/>
<use xlink:href="#glyph-0-3" x="322.801551" y="296.340768"/>
<use xlink:href="#glyph-0-4" x="326.640503" y="296.340768"/>
</g>
<g fill="rgb(0%, 0%, 0%)" fill-opacity="1">
<use xlink:href="#glyph-0-3" x="332.00159" y="296.340768"/>
<use xlink:href="#glyph-0-1" x="335.840541" y="296.340768"/>
<use xlink:href="#glyph-0-5" x="342.750655" y="296.340768"/>
</g>
<g fill="rgb(0%, 0%, 0%)" fill-opacity="1">
<use xlink:href="#glyph-1-0" x="355.040679" y="296.340768"/>
</g>
<path fill="none" stroke-width="0.69739" stroke-linecap="butt" stroke-linejoin="miter" stroke="rgb(0%, 0%, 0%)" stroke-opacity="1" stroke-miterlimit="10" d="M -29.234023 -29.230913 L -29.234023 230.736872 " transform="matrix(0.999763, 0, 0, -0.999763, 60.410697, 263.924443)"/>
<path fill-rule="nonzero" fill="rgb(0%, 0%, 0%)" fill-opacity="1" stroke-width="0.69739" stroke-linecap="butt" stroke-linejoin="miter" stroke="rgb(0%, 0%, 0%)" stroke-opacity="1" stroke-miterlimit="10" d="M 4.340563 0.00158328 C 3.809187 0.13052 1.464882 0.87679 -0.00030832 1.689483 L -0.00030832 -1.690223 C 1.464882 -0.877531 3.809187 -0.131261 4.340563 0.00158328 Z M 4.340563 0.00158328 " transform="matrix(0, -0.999763, -0.999763, 0, 31.185177, 33.241879)"/>
<g fill="rgb(0%, 0%, 0%)" fill-opacity="1">
<use xlink:href="#glyph-0-4" x="12.947934" y="21.96173"/>
<use xlink:href="#glyph-0-3" x="18.322467" y="21.96173"/>
<use xlink:href="#glyph-0-6" x="22.161419" y="21.96173"/>
<use xlink:href="#glyph-0-7" x="33.678275" y="21.96173"/>
</g>
<g fill="rgb(0%, 0%, 0%)" fill-opacity="1">
<use xlink:href="#glyph-1-1" x="44.438097" y="21.96173"/>
</g>
<path fill-rule="nonzero" fill="rgb(58.822632%, 58.822632%, 58.822632%)" fill-opacity="1" stroke-width="0.39851" stroke-linecap="butt" stroke-linejoin="miter" stroke="rgb(58.822632%, 58.822632%, 58.822632%)" stroke-opacity="1" stroke-miterlimit="10" d="M 4.648997 -0.0013383 C 4.648997 2.569583 2.566473 4.6482 -0.000541152 4.6482 C -2.567555 4.6482 -4.650079 2.569583 -4.650079 -0.0013383 C -4.650079 -2.568352 -2.567555 -4.650876 -0.000541152 -4.650876 C 2.566473 -4.650876 4.648997 -2.568352 4.648997 -0.0013383 Z M 4.648997 -0.0013383 " transform="matrix(0.999763, 0, 0, -0.999763, 60.410697, 263.924443)"/>
<path fill-rule="nonzero" fill="rgb(58.822632%, 58.822632%, 58.822632%)" fill-opacity="1" stroke-width="0.39851" stroke-linecap="butt" stroke-linejoin="miter" stroke="rgb(58.822632%, 58.822632%, 58.822632%)" stroke-opacity="1" stroke-miterlimit="10" d="M 4.648997 53.147961 C 4.648997 55.718882 2.566473 57.801406 -0.000541152 57.801406 C -2.567555 57.801406 -4.650079 55.718882 -4.650079 53.147961 C -4.650079 50.580947 -2.567555 48.498423 -0.000541152 48.498423 C 2.566473 48.498423 4.648997 50.580947 4.648997 53.147961 Z M 4.648997 53.147961 " transform="matrix(0.999763, 0, 0, -0.999763, 60.410697, 263.924443)"/>
<path fill-rule="nonzero" fill="rgb(58.822632%, 58.822632%, 58.822632%)" fill-opacity="1" stroke-width="0.39851" stroke-linecap="butt" stroke-linejoin="miter" stroke="rgb(58.822632%, 58.822632%, 58.822632%)" stroke-opacity="1" stroke-miterlimit="10" d="M 4.648997 106.29726 C 4.648997 108.868181 2.566473 110.950706 -0.000541152 110.950706 C -2.567555 110.950706 -4.650079 108.868181 -4.650079 106.29726 C -4.650079 103.730246 -2.567555 101.647722 -0.000541152 101.647722 C 2.566473 101.647722 4.648997 103.730246 4.648997 106.29726 Z M 4.648997 106.29726 " transform="matrix(0.999763, 0, 0, -0.999763, 60.410697, 263.924443)"/>
<path fill-rule="nonzero" fill="rgb(58.822632%, 58.822632%, 58.822632%)" fill-opacity="1" stroke-width="0.39851" stroke-linecap="butt" stroke-linejoin="miter" stroke="rgb(58.822632%, 58.822632%, 58.822632%)" stroke-opacity="1" stroke-miterlimit="10" d="M 4.648997 159.450467 C 4.648997 162.017481 2.566473 164.100005 -0.000541152 164.100005 C -2.567555 164.100005 -4.650079 162.017481 -4.650079 159.450467 C -4.650079 156.879546 -2.567555 154.797022 -0.000541152 154.797022 C 2.566473 154.797022 4.648997 156.879546 4.648997 159.450467 Z M 4.648997 159.450467 " transform="matrix(0.999763, 0, 0, -0.999763, 60.410697, 263.924443)"/>
<path fill-rule="nonzero" fill="rgb(58.822632%, 58.822632%, 58.822632%)" fill-opacity="1" stroke-width="0.39851" stroke-linecap="butt" stroke-linejoin="miter" stroke="rgb(58.822632%, 58.822632%, 58.822632%)" stroke-opacity="1" stroke-miterlimit="10" d="M 4.648997 212.599766 C 4.648997 215.16678 2.566473 217.249304 -0.000541152 217.249304 C -2.567555 217.249304 -4.650079 215.16678 -4.650079 212.599766 C -4.650079 210.028845 -2.567555 207.950228 -0.000541152 207.950228 C 2.566473 207.950228 4.648997 210.028845 4.648997 212.599766 Z M 4.648997 212.599766 " transform="matrix(0.999763, 0, 0, -0.999763, 60.410697, 263.924443)"/>
<path fill-rule="nonzero" fill="rgb(58.822632%, 58.822632%, 58.822632%)" fill-opacity="1" stroke-width="0.39851" stroke-linecap="butt" stroke-linejoin="miter" stroke="rgb(58.822632%, 58.822632%, 58.822632%)" stroke-opacity="1" stroke-miterlimit="10" d="M 57.798296 -0.0013383 C 57.798296 2.569583 55.715772 4.6482 53.148758 4.6482 C 50.581744 4.6482 48.49922 2.569583 48.49922 -0.0013383 C 48.49922 -2.568352 50.581744 -4.650876 53.148758 -4.650876 C 55.715772 -4.650876 57.798296 -2.568352 57.798296 -0.0013383 Z M 57.798296 -0.0013383 " transform="matrix(0.999763, 0, 0, -0.999763, 60.410697, 263.924443)"/>
<path fill-rule="nonzero" fill="rgb(58.822632%, 58.822632%, 58.822632%)" fill-opacity="1" stroke-width="0.39851" stroke-linecap="butt" stroke-linejoin="miter" stroke="rgb(58.822632%, 58.822632%, 58.822632%)" stroke-opacity="1" stroke-miterlimit="10" d="M 57.798296 53.147961 C 57.798296 55.718882 55.715772 57.801406 53.148758 57.801406 C 50.581744 57.801406 48.49922 55.718882 48.49922 53.147961 C 48.49922 50.580947 50.581744 48.498423 53.148758 48.498423 C 55.715772 48.498423 57.798296 50.580947 57.798296 53.147961 Z M 57.798296 53.147961 " transform="matrix(0.999763, 0, 0, -0.999763, 60.410697, 263.924443)"/>
<path fill-rule="nonzero" fill="rgb(58.822632%, 58.822632%, 58.822632%)" fill-opacity="1" stroke-width="0.39851" stroke-linecap="butt" stroke-linejoin="miter" stroke="rgb(58.822632%, 58.822632%, 58.822632%)" stroke-opacity="1" stroke-miterlimit="10" d="M 57.798296 106.29726 C 57.798296 108.868181 55.715772 110.950706 53.148758 110.950706 C 50.581744 110.950706 48.49922 108.868181 48.49922 106.29726 C 48.49922 103.730246 50.581744 101.647722 53.148758 101.647722 C 55.715772 101.647722 57.798296 103.730246 57.798296 106.29726 Z M 57.798296 106.29726 " transform="matrix(0.999763, 0, 0, -0.999763, 60.410697, 263.924443)"/>
<path fill-rule="nonzero" fill="rgb(58.822632%, 58.822632%, 58.822632%)" fill-opacity="1" stroke-width="0.39851" stroke-linecap="butt" stroke-linejoin="miter" stroke="rgb(58.822632%, 58.822632%, 58.822632%)" stroke-opacity="1" stroke-miterlimit="10" d="M 57.798296 159.450467 C 57.798296 162.017481 55.715772 164.100005 53.148758 164.100005 C 50.581744 164.100005 48.49922 162.017481 48.49922 159.450467 C 48.49922 156.879546 50.581744 154.797022 53.148758 154.797022 C 55.715772 154.797022 57.798296 156.879546 57.798296 159.450467 Z M 57.798296 159.450467 " transform="matrix(0.999763, 0, 0, -0.999763, 60.410697, 263.924443)"/>
<path fill-rule="nonzero" fill="rgb(58.822632%, 58.822632%, 58.822632%)" fill-opacity="1" stroke-width="0.39851" stroke-linecap="butt" stroke-linejoin="miter" stroke="rgb(58.822632%, 58.822632%, 58.822632%)" stroke-opacity="1" stroke-miterlimit="10" d="M 57.798296 212.599766 C 57.798296 215.16678 55.715772 217.249304 53.148758 217.249304 C 50.581744 217.249304 48.49922 215.16678 48.49922 212.599766 C 48.49922 210.028845 50.581744 207.950228 53.148758 207.950228 C 55.715772 207.950228 57.798296 210.028845 57.798296 212.599766 Z M 57.798296 212.599766 " transform="matrix(0.999763, 0, 0, -0.999763, 60.410697, 263.924443)"/>
<path fill-rule="nonzero" fill="rgb(58.822632%, 58.822632%, 58.822632%)" fill-opacity="1" stroke-width="0.39851" stroke-linecap="butt" stroke-linejoin="miter" stroke="rgb(58.822632%, 58.822632%, 58.822632%)" stroke-opacity="1" stroke-miterlimit="10" d="M 110.947596 -0.0013383 C 110.947596 2.569583 108.868978 4.6482 106.298057 4.6482 C 103.731044 4.6482 101.648519 2.569583 101.648519 -0.0013383 C 101.648519 -2.568352 103.731044 -4.650876 106.298057 -4.650876 C 108.868978 -4.650876 110.947596 -2.568352 110.947596 -0.0013383 Z M 110.947596 -0.0013383 " transform="matrix(0.999763, 0, 0, -0.999763, 60.410697, 263.924443)"/>
<path fill-rule="nonzero" fill="rgb(58.822632%, 58.822632%, 58.822632%)" fill-opacity="1" stroke-width="0.39851" stroke-linecap="butt" stroke-linejoin="miter" stroke="rgb(58.822632%, 58.822632%, 58.822632%)" stroke-opacity="1" stroke-miterlimit="10" d="M 110.947596 53.147961 C 110.947596 55.718882 108.868978 57.801406 106.298057 57.801406 C 103.731044 57.801406 101.648519 55.718882 101.648519 53.147961 C 101.648519 50.580947 103.731044 48.498423 106.298057 48.498423 C 108.868978 48.498423 110.947596 50.580947 110.947596 53.147961 Z M 110.947596 53.147961 " transform="matrix(0.999763, 0, 0, -0.999763, 60.410697, 263.924443)"/>
<path fill-rule="nonzero" fill="rgb(58.822632%, 58.822632%, 58.822632%)" fill-opacity="1" stroke-width="0.39851" stroke-linecap="butt" stroke-linejoin="miter" stroke="rgb(58.822632%, 58.822632%, 58.822632%)" stroke-opacity="1" stroke-miterlimit="10" d="M 110.947596 106.29726 C 110.947596 108.868181 108.868978 110.950706 106.298057 110.950706 C 103.731044 110.950706 101.648519 108.868181 101.648519 106.29726 C 101.648519 103.730246 103.731044 101.647722 106.298057 101.647722 C 108.868978 101.647722 110.947596 103.730246 110.947596 106.29726 Z M 110.947596 106.29726 " transform="matrix(0.999763, 0, 0, -0.999763, 60.410697, 263.924443)"/>
<path fill-rule="nonzero" fill="rgb(58.822632%, 58.822632%, 58.822632%)" fill-opacity="1" stroke-width="0.39851" stroke-linecap="butt" stroke-linejoin="miter" stroke="rgb(58.822632%, 58.822632%, 58.822632%)" stroke-opacity="1" stroke-miterlimit="10" d="M 110.947596 159.450467 C 110.947596 162.017481 108.868978 164.100005 106.298057 164.100005 C 103.731044 164.100005 101.648519 162.017481 101.648519 159.450467 C 101.648519 156.879546 103.731044 154.797022 106.298057 154.797022 C 108.868978 154.797022 110.947596 156.879546 110.947596 159.450467 Z M 110.947596 159.450467 " transform="matrix(0.999763, 0, 0, -0.999763, 60.410697, 263.924443)"/>
<path fill-rule="nonzero" fill="rgb(58.822632%, 58.822632%, 58.822632%)" fill-opacity="1" stroke-width="0.39851" stroke-linecap="butt" stroke-linejoin="miter" stroke="rgb(58.822632%, 58.822632%, 58.822632%)" stroke-opacity="1" stroke-miterlimit="10" d="M 110.947596 212.599766 C 110.947596 215.16678 108.868978 217.249304 106.298057 217.249304 C 103.731044 217.249304 101.648519 215.16678 101.648519 212.599766 C 101.648519 210.028845 103.731044 207.950228 106.298057 207.950228 C 108.868978 207.950228 110.947596 210.028845 110.947596 212.599766 Z M 110.947596 212.599766 " transform="matrix(0.999763, 0, 0, -0.999763, 60.410697, 263.924443)"/>
<path fill-rule="nonzero" fill="rgb(58.822632%, 58.822632%, 58.822632%)" fill-opacity="1" stroke-width="0.39851" stroke-linecap="butt" stroke-linejoin="miter" stroke="rgb(58.822632%, 58.822632%, 58.822632%)" stroke-opacity="1" stroke-miterlimit="10" d="M 164.096895 -0.0013383 C 164.096895 2.569583 162.018278 4.6482 159.447357 4.6482 C 156.880343 4.6482 154.797819 2.569583 154.797819 -0.0013383 C 154.797819 -2.568352 156.880343 -4.650876 159.447357 -4.650876 C 162.018278 -4.650876 164.096895 -2.568352 164.096895 -0.0013383 Z M 164.096895 -0.0013383 " transform="matrix(0.999763, 0, 0, -0.999763, 60.410697, 263.924443)"/>
<path fill-rule="nonzero" fill="rgb(58.822632%, 58.822632%, 58.822632%)" fill-opacity="1" stroke-width="0.39851" stroke-linecap="butt" stroke-linejoin="miter" stroke="rgb(58.822632%, 58.822632%, 58.822632%)" stroke-opacity="1" stroke-miterlimit="10" d="M 164.096895 53.147961 C 164.096895 55.718882 162.018278 57.801406 159.447357 57.801406 C 156.880343 57.801406 154.797819 55.718882 154.797819 53.147961 C 154.797819 50.580947 156.880343 48.498423 159.447357 48.498423 C 162.018278 48.498423 164.096895 50.580947 164.096895 53.147961 Z M 164.096895 53.147961 " transform="matrix(0.999763, 0, 0, -0.999763, 60.410697, 263.924443)"/>
<path fill-rule="nonzero" fill="rgb(58.822632%, 58.822632%, 58.822632%)" fill-opacity="1" stroke-width="0.39851" stroke-linecap="butt" stroke-linejoin="miter" stroke="rgb(58.822632%, 58.822632%, 58.822632%)" stroke-opacity="1" stroke-miterlimit="10" d="M 164.096895 106.29726 C 164.096895 108.868181 162.018278 110.950706 159.447357 110.950706 C 156.880343 110.950706 154.797819 108.868181 154.797819 106.29726 C 154.797819 103.730246 156.880343 101.647722 159.447357 101.647722 C 162.018278 101.647722 164.096895 103.730246 164.096895 106.29726 Z M 164.096895 106.29726 " transform="matrix(0.999763, 0, 0, -0.999763, 60.410697, 263.924443)"/>
<path fill-rule="nonzero" fill="rgb(58.822632%, 58.822632%, 58.822632%)" fill-opacity="1" stroke-width="0.39851" stroke-linecap="butt" stroke-linejoin="miter" stroke="rgb(58.822632%, 58.822632%, 58.822632%)" stroke-opacity="1" stroke-miterlimit="10" d="M 164.096895 159.450467 C 164.096895 162.017481 162.018278 164.100005 159.447357 164.100005 C 156.880343 164.100005 154.797819 162.017481 154.797819 159.450467 C 154.797819 156.879546 156.880343 154.797022 159.447357 154.797022 C 162.018278 154.797022 164.096895 156.879546 164.096895 159.450467 Z M 164.096895 159.450467 " transform="matrix(0.999763, 0, 0, -0.999763, 60.410697, 263.924443)"/>
<path fill-rule="nonzero" fill="rgb(58.822632%, 58.822632%, 58.822632%)" fill-opacity="1" stroke-width="0.39851" stroke-linecap="butt" stroke-linejoin="miter" stroke="rgb(58.822632%, 58.822632%, 58.822632%)" stroke-opacity="1" stroke-miterlimit="10" d="M 164.096895 212.599766 C 164.096895 215.16678 162.018278 217.249304 159.447357 217.249304 C 156.880343 217.249304 154.797819 215.16678 154.797819 212.599766 C 154.797819 210.028845 156.880343 207.950228 159.447357 207.950228 C 162.018278 207.950228 164.096895 210.028845 164.096895 212.599766 Z M 164.096895 212.599766 " transform="matrix(0.999763, 0, 0, -0.999763, 60.410697, 263.924443)"/>
<path fill-rule="nonzero" fill="rgb(58.822632%, 58.822632%, 58.822632%)" fill-opacity="1" stroke-width="0.39851" stroke-linecap="butt" stroke-linejoin="miter" stroke="rgb(58.822632%, 58.822632%, 58.822632%)" stroke-opacity="1" stroke-miterlimit="10" d="M 217.250101 -0.0013383 C 217.250101 2.569583 215.167577 4.6482 212.596656 4.6482 C 210.029642 4.6482 207.947118 2.569583 207.947118 -0.0013383 C 207.947118 -2.568352 210.029642 -4.650876 212.596656 -4.650876 C 215.167577 -4.650876 217.250101 -2.568352 217.250101 -0.0013383 Z M 217.250101 -0.0013383 " transform="matrix(0.999763, 0, 0, -0.999763, 60.410697, 263.924443)"/>
<path fill-rule="nonzero" fill="rgb(58.822632%, 58.822632%, 58.822632%)" fill-opacity="1" stroke-width="0.39851" stroke-linecap="butt" stroke-linejoin="miter" stroke="rgb(58.822632%, 58.822632%, 58.822632%)" stroke-opacity="1" stroke-miterlimit="10" d="M 217.250101 53.147961 C 217.250101 55.718882 215.167577 57.801406 212.596656 57.801406 C 210.029642 57.801406 207.947118 55.718882 207.947118 53.147961 C 207.947118 50.580947 210.029642 48.498423 212.596656 48.498423 C 215.167577 48.498423 217.250101 50.580947 217.250101 53.147961 Z M 217.250101 53.147961 " transform="matrix(0.999763, 0, 0, -0.999763, 60.410697, 263.924443)"/>
<path fill-rule="nonzero" fill="rgb(58.822632%, 58.822632%, 58.822632%)" fill-opacity="1" stroke-width="0.39851" stroke-linecap="butt" stroke-linejoin="miter" stroke="rgb(58.822632%, 58.822632%, 58.822632%)" stroke-opacity="1" stroke-miterlimit="10" d="M 217.250101 106.29726 C 217.250101 108.868181 215.167577 110.950706 212.596656 110.950706 C 210.029642 110.950706 207.947118 108.868181 207.947118 106.29726 C 207.947118 103.730246 210.029642 101.647722 212.596656 101.647722 C 215.167577 101.647722 217.250101 103.730246 217.250101 106.29726 Z M 217.250101 106.29726 " transform="matrix(0.999763, 0, 0, -0.999763, 60.410697, 263.924443)"/>
<path fill-rule="nonzero" fill="rgb(58.822632%, 58.822632%, 58.822632%)" fill-opacity="1" stroke-width="0.39851" stroke-linecap="butt" stroke-linejoin="miter" stroke="rgb(58.822632%, 58.822632%, 58.822632%)" stroke-opacity="1" stroke-miterlimit="10" d="M 217.250101 159.450467 C 217.250101 162.017481 215.167577 164.100005 212.596656 164.100005 C 210.029642 164.100005 207.947118 162.017481 207.947118 159.450467 C 207.947118 156.879546 210.029642 154.797022 212.596656 154.797022 C 215.167577 154.797022 217.250101 156.879546 217.250101 159.450467 Z M 217.250101 159.450467 " transform="matrix(0.999763, 0, 0, -0.999763, 60.410697, 263.924443)"/>
<path fill-rule="nonzero" fill="rgb(58.822632%, 58.822632%, 58.822632%)" fill-opacity="1" stroke-width="0.39851" stroke-linecap="butt" stroke-linejoin="miter" stroke="rgb(58.822632%, 58.822632%, 58.822632%)" stroke-opacity="1" stroke-miterlimit="10" d="M 217.250101 212.599766 C 217.250101 215.16678 215.167577 217.249304 212.596656 217.249304 C 210.029642 217.249304 207.947118 215.16678 207.947118 212.599766 C 207.947118 210.028845 210.029642 207.950228 212.596656 207.950228 C 215.167577 207.950228 217.250101 210.028845 217.250101 212.599766 Z M 217.250101 212.599766 " transform="matrix(0.999763, 0, 0, -0.999763, 60.410697, 263.924443)"/>
<path fill="none" stroke-width="1.29515" stroke-linecap="butt" stroke-linejoin="miter" stroke="rgb(12.548828%, 41.175842%, 70.588684%)" stroke-opacity="1" stroke-miterlimit="10" d="M 60.193394 106.29726 C 60.193394 110.188806 57.040304 113.341897 53.148758 113.341897 C 49.257212 113.341897 46.104122 110.188806 46.104122 106.29726 C 46.104122 102.409621 49.257212 99.256531 53.148758 99.256531 C 57.040304 99.256531 60.193394 102.409621 60.193394 106.29726 Z M 60.193394 106.29726 " transform="matrix(0.999763, 0, 0, -0.999763, 60.410697, 263.924443)"/>
<path fill="none" stroke-width="1.29515" stroke-linecap="butt" stroke-linejoin="miter" stroke="rgb(12.548828%, 41.175842%, 70.588684%)" stroke-opacity="1" stroke-miterlimit="10" d="M 166.491993 106.29726 C 166.491993 110.188806 163.338903 113.341897 159.447357 113.341897 C 155.559718 113.341897 152.402721 110.188806 152.402721 106.29726 C 152.402721 102.409621 155.559718 99.256531 159.447357 99.256531 C 163.338903 99.256531 166.491993 102.409621 166.491993 106.29726 Z M 166.491993 106.29726 " transform="matrix(0.999763, 0, 0, -0.999763, 60.410697, 263.924443)"/>
<path fill="none" stroke-width="1.29515" stroke-linecap="butt" stroke-linejoin="miter" stroke="rgb(12.548828%, 41.175842%, 70.588684%)" stroke-opacity="1" stroke-miterlimit="10" d="M 113.342694 53.147961 C 113.342694 57.039507 110.189604 60.192597 106.298057 60.192597 C 102.410418 60.192597 99.253421 57.039507 99.253421 53.147961 C 99.253421 49.260322 102.410418 46.103325 106.298057 46.103325 C 110.189604 46.103325 113.342694 49.260322 113.342694 53.147961 Z M 113.342694 53.147961 " transform="matrix(0.999763, 0, 0, -0.999763, 60.410697, 263.924443)"/>
<path fill="none" stroke-width="1.29515" stroke-linecap="butt" stroke-linejoin="miter" stroke="rgb(12.548828%, 41.175842%, 70.588684%)" stroke-opacity="1" stroke-miterlimit="10" d="M 113.342694 159.450467 C 113.342694 163.338106 110.189604 166.495103 106.298057 166.495103 C 102.410418 166.495103 99.253421 163.338106 99.253421 159.450467 C 99.253421 155.558921 102.410418 152.405831 106.298057 152.405831 C 110.189604 152.405831 113.342694 155.558921 113.342694 159.450467 Z M 113.342694 159.450467 " transform="matrix(0.999763, 0, 0, -0.999763, 60.410697, 263.924443)"/>
<path fill-rule="nonzero" fill="rgb(12.548828%, 41.175842%, 70.588684%)" fill-opacity="1" stroke-width="0.39851" stroke-linecap="butt" stroke-linejoin="miter" stroke="rgb(12.548828%, 41.175842%, 70.588684%)" stroke-opacity="1" stroke-miterlimit="10" d="M 113.342694 106.29726 C 113.342694 110.188806 110.189604 113.341897 106.298057 113.341897 C 102.410418 113.341897 99.253421 110.188806 99.253421 106.29726 C 99.253421 102.409621 102.410418 99.256531 106.298057 99.256531 C 110.189604 99.256531 113.342694 102.409621 113.342694 106.29726 Z M 113.342694 106.29726 " transform="matrix(0.999763, 0, 0, -0.999763, 60.410697, 263.924443)"/>
<g fill="rgb(0%, 0%, 0%)" fill-opacity="1">
<use xlink:href="#glyph-1-2" x="72.489837" y="160.504929"/>
</g>
<g fill="rgb(0%, 0%, 0%)" fill-opacity="1">
<use xlink:href="#glyph-2-0" x="79.343215" y="154.792781"/>
</g>
<g fill="rgb(0%, 0%, 0%)" fill-opacity="1">
<use xlink:href="#glyph-2-1" x="78.959306" y="163.121809"/>
</g>
<g fill="rgb(0%, 0%, 0%)" fill-opacity="1">
<use xlink:href="#glyph-3-0" x="82.953788" y="163.121809"/>
</g>
<g fill="rgb(0%, 0%, 0%)" fill-opacity="1">
<use xlink:href="#glyph-4-0" x="91.586387" y="163.121809"/>
</g>
<g fill="rgb(0%, 0%, 0%)" fill-opacity="1">
<use xlink:href="#glyph-1-2" x="235.55823" y="160.504929"/>
</g>
<g fill="rgb(0%, 0%, 0%)" fill-opacity="1">
<use xlink:href="#glyph-2-0" x="242.411607" y="154.792781"/>
</g>
<g fill="rgb(0%, 0%, 0%)" fill-opacity="1">
<use xlink:href="#glyph-2-1" x="242.027698" y="163.121809"/>
</g>
<g fill="rgb(0%, 0%, 0%)" fill-opacity="1">
<use xlink:href="#glyph-4-1" x="246.02218" y="163.121809"/>
<use xlink:href="#glyph-4-0" x="254.405573" y="163.121809"/>
</g>
<g fill="rgb(0%, 0%, 0%)" fill-opacity="1">
<use xlink:href="#glyph-1-2" x="152.379923" y="238.177539"/>
</g>
<g fill="rgb(0%, 0%, 0%)" fill-opacity="1">
<use xlink:href="#glyph-2-0" x="159.2333" y="232.300431"/>
</g>
<g fill="rgb(0%, 0%, 0%)" fill-opacity="1">
<use xlink:href="#glyph-3-0" x="166.133105" y="232.300431"/>
</g>
<g fill="rgb(0%, 0%, 0%)" fill-opacity="1">
<use xlink:href="#glyph-4-0" x="174.765704" y="232.300431"/>
</g>
<g fill="rgb(0%, 0%, 0%)" fill-opacity="1">
<use xlink:href="#glyph-2-1" x="158.849391" y="241.875664"/>
</g>
<g fill="rgb(0%, 0%, 0%)" fill-opacity="1">
<use xlink:href="#glyph-1-2" x="152.503893" y="85.078786"/>
</g>
<g fill="rgb(0%, 0%, 0%)" fill-opacity="1">
<use xlink:href="#glyph-2-0" x="159.357271" y="79.201678"/>
</g>
<g fill="rgb(0%, 0%, 0%)" fill-opacity="1">
<use xlink:href="#glyph-4-1" x="166.257075" y="79.201678"/>
<use xlink:href="#glyph-4-0" x="174.640468" y="79.201678"/>
</g>
<g fill="rgb(0%, 0%, 0%)" fill-opacity="1">
<use xlink:href="#glyph-2-1" x="158.973362" y="88.776911"/>
</g>
<g fill="rgb(0%, 0%, 0%)" fill-opacity="1">
<use xlink:href="#glyph-1-2" x="182.42081" y="182.958613"/>
</g>
<g fill="rgb(0%, 0%, 0%)" fill-opacity="1">
<use xlink:href="#glyph-2-0" x="189.274188" y="177.246465"/>
</g>
<g fill="rgb(0%, 0%, 0%)" fill-opacity="1">
<use xlink:href="#glyph-2-1" x="188.890279" y="185.575493"/>
</g>
</svg>
